<?xml version="1.0" encoding="UTF-8" standalone="no"?>
<!-- Created with Inkscape (http://www.inkscape.org/) -->

<svg
   xmlns:dc="http://purl.org/dc/elements/1.1/"
   xmlns:cc="http://creativecommons.org/ns#"
   xmlns:rdf="http://www.w3.org/1999/02/22-rdf-syntax-ns#"
   xmlns:svg="http://www.w3.org/2000/svg"
   xmlns="http://www.w3.org/2000/svg"
   xmlns:xlink="http://www.w3.org/1999/xlink"
   xmlns:sodipodi="http://sodipodi.sourceforge.net/DTD/sodipodi-0.dtd"
   xmlns:inkscape="http://www.inkscape.org/namespaces/inkscape"
   width="200"
   height="130"
   viewBox="0 0 200 130"
   id="svg2"
   version="1.1"
   inkscape:version="0.91 r13725"
   sodipodi:docname="ExplanarianNextArrow.svg">
  <defs>
<radialGradient id="a" cx="500" cy="627.71" r="242.35" gradientTransform="matrix(0 .29702 -3.8391 -1.1931e-8 2408.1 838.85)" gradientUnits="userSpaceOnUse">
<stop stop-color="#bc7319" offset="0"/>
<stop stop-color="#f0d263" offset="1"/>
</radialGradient>
</defs>
<metadata>
<rdf:RDF>
<cc:Work rdf:about="">
<dc:format>image/svg+xml</dc:format>
<dc:type rdf:resource="http://purl.org/dc/dcmitype/StillImage"/>
<dc:title/>
</cc:Work>
</rdf:RDF>
</metadata>
<g transform="translate(0 -922.36)">
<path d="m197.47 987.36c0-24.281-87.261-61.708-87.261-61.708v29.694l-13.563 0.3794c-13.563 0.37939-62.202 2.8271-74.811 7.9657-12.609 5.1386-19.301 14.695-19.301 23.669 0 8.9738 3.9735 18.163 19.301 23.669 15.327 5.5055 61.248 7.5863 74.811 7.9657l13.563 0.3794v29.694s87.261-37.428 87.261-61.708z" fill="url(#a)" stroke="#73553d" stroke-width="2.6285"/>
<g transform="matrix(0 .26285 -.26285 0 178.13 860.01)" stroke="#000" stroke-width="10">
<ellipse cx="547.14" cy="120.93" rx="25.714" ry="51.429" fill="#fff"/>
<ellipse cx="534.37" cy="123.53" rx="12.627" ry="26.264"/>
</g>
<g transform="matrix(0 -.26285 -.26285 0 178.66 1114.7)" stroke="#000" stroke-width="10">
<ellipse cx="547.14" cy="120.93" rx="25.714" ry="51.429" fill="#fff"/>
<ellipse cx="534.37" cy="123.53" rx="12.627" ry="26.264"/>
</g>
</g>
</svg>
